<?xml version="1.0" standalone="no"?>
<!DOCTYPE svg PUBLIC "-//W3C//DTD SVG 20010904//EN"
 "http://www.w3.org/TR/2001/REC-SVG-20010904/DTD/svg10.dtd">
<svg version="1.0" xmlns="http://www.w3.org/2000/svg"
 width="1375.000000pt" height="1375.000000pt" viewBox="0 0 1375.000000 1375.000000"
 preserveAspectRatio="xMidYMid meet">
<metadata>
Created by potrace 1.11, written by Peter Selinger 2001-2013
</metadata>
<g transform="translate(0.000000,1375.000000) scale(0.100000,-0.100000)"
fill="#000000" stroke="none">
<path d="M9487 10874 c-9 -15 -75 -264 -91 -344 -23 -117 -44 -289 -55 -475
-44 -687 -46 -712 -116 -1121 -72 -426 -141 -623 -303 -865 -178 -265 -386
-448 -682 -598 -134 -69 -281 -131 -545 -231 -350 -134 -507 -213 -790 -400
-360 -239 -651 -480 -1054 -875 -418 -410 -643 -698 -806 -1030 -78 -159 -243
-555 -352 -845 -73 -196 -108 -269 -231 -485 -302 -533 -527 -762 -860 -876
-91 -31 -105 -33 -232 -33 -156 -1 -198 11 -322 93 -139 91 -257 243 -368 473
-71 149 -114 271 -224 647 -47 158 -104 338 -126 401 -23 63 -89 268 -146 455
-154 499 -270 777 -387 932 -117 155 -195 209 -362 253 -191 49 -473 63 -709
35 -157 -18 -276 -45 -276 -60 0 -7 26 -37 59 -67 99 -92 144 -99 536 -88 115
3 176 1 215 -9 250 -62 478 -330 623 -731 25 -69 71 -208 102 -310 31 -102
103 -329 160 -505 57 -176 138 -426 179 -555 87 -269 140 -397 246 -595 220
-410 405 -597 647 -651 110 -24 204 -15 356 36 260 87 393 183 802 580 301
291 465 409 622 446 138 32 258 -23 298 -135 8 -24 24 -97 35 -162 11 -65 29
-146 40 -180 29 -95 134 -263 215 -344 60 -61 82 -76 152 -103 274 -107 576
-142 1232 -142 207 0 466 -5 576 -11 265 -14 252 -14 319 16 58 26 58 26 53
61 -14 83 -62 111 -247 143 -150 26 -225 59 -300 133 -29 29 -64 76 -78 106
-21 47 -24 64 -20 136 3 49 14 104 27 138 54 141 211 326 392 462 109 83 320
216 426 270 138 69 525 212 544 200 12 -7 68 -117 121 -238 56 -128 75 -211
98 -435 24 -224 45 -324 92 -419 85 -171 263 -281 369 -226 l30 15 -39 47
c-55 67 -121 166 -143 217 -25 56 -26 81 -16 420 19 666 37 819 147 1290 33
138 73 327 90 420 54 294 87 409 157 533 69 125 224 262 377 333 33 15 137 46
229 69 93 22 188 48 212 59 67 29 154 92 241 173 43 41 124 114 179 163 55 49
179 162 275 251 233 215 276 252 405 349 271 203 471 320 644 376 79 26 117
32 216 36 105 4 132 1 215 -20 53 -14 144 -44 203 -67 84 -32 114 -40 140 -35
79 18 147 73 147 122 0 39 -24 74 -103 151 -105 101 -158 124 -377 162 -240
41 -350 39 -555 -11 -175 -43 -233 -68 -371 -161 -134 -89 -325 -184 -471
-234 -130 -44 -251 -27 -326 44 -46 43 -81 125 -131 302 -57 199 -87 375 -116
660 -11 118 -28 258 -36 310 -8 52 -15 138 -16 190 0 85 4 106 34 186 43 114
95 192 252 377 69 81 138 167 154 190 69 100 142 275 142 340 0 48 -65 135
-137 183 -83 55 -183 90 -396 140 -103 24 -218 53 -255 64 -37 11 -118 26
-179 35 -140 19 -175 27 -285 64 -183 62 -253 124 -336 292 -27 56 -52 98 -55
93z"/>
<path d="M4377 10839 c-5 -17 2 -24 36 -39 23 -10 287 -120 587 -245 300 -126
549 -232 555 -237 6 -6 2 -23 -13 -50 -17 -29 -26 -65 -32 -126 -8 -95 -16
-106 -78 -116 -21 -3 -46 -12 -57 -20 -17 -12 -12 -12 39 -4 32 5 61 6 64 3 3
-3 -7 -18 -22 -34 -33 -35 -42 -84 -26 -150 16 -67 30 -56 30 23 0 68 12 89
61 101 26 6 27 5 37 -62 13 -91 0 -134 -46 -149 -35 -11 -33 -24 5 -24 57 0
83 42 83 136 0 53 1 54 28 54 39 0 62 28 62 75 0 26 7 46 22 62 21 23 22 24 5
71 -23 64 -23 80 2 58 11 -10 25 -15 30 -11 18 11 12 22 -19 35 -21 9 -30 19
-30 36 0 13 6 24 13 24 16 0 473 -191 504 -210 18 -12 53 -68 53 -87 0 -3 -9
-3 -20 0 -11 3 -20 0 -20 -6 0 -6 -17 -28 -37 -49 -20 -21 -34 -41 -30 -44 3
-4 22 9 41 28 34 34 35 34 66 18 28 -15 30 -18 15 -30 -15 -13 -15 -26 1 -81
4 -14 -3 -15 -52 -8 -31 4 -61 12 -67 18 -13 13 -57 14 -76 2 -9 -6 2 -11 33
-15 33 -5 54 -16 80 -42 27 -27 42 -34 74 -34 l41 0 60 -102 c33 -57 61 -100
61 -95 0 26 -56 137 -85 167 -36 37 -62 90 -45 90 21 0 99 -82 105 -110 9 -41
75 -58 75 -19 0 20 1 20 21 -5 15 -20 20 -35 15 -59 -3 -18 -1 -48 3 -67 7
-28 9 -18 10 52 1 48 -3 98 -9 112 -14 37 14 35 47 -4 13 -16 29 -30 34 -30
16 0 10 23 -12 46 -17 18 -19 26 -9 44 8 15 17 19 28 15 9 -4 23 -9 30 -12 16
-7 16 12 -1 26 -11 8 -11 20 -3 56 6 25 15 44 21 42 11 -4 11 -26 1 -72 -5
-22 -2 -20 9 9 8 22 17 41 20 44 2 2 99 -36 216 -84 l212 -89 34 -72 c35 -76
40 -102 22 -120 -8 -8 -4 -23 11 -53 19 -36 20 -46 10 -66 -16 -28 -1 -70 36
-105 l25 -23 -23 -18 c-21 -15 -16 -15 45 3 38 11 71 18 74 16 3 -3 2 -15 -2
-26 -5 -17 -10 -19 -25 -11 -37 20 -41 9 -13 -39 29 -52 43 -51 43 2 0 15 5
27 11 27 6 0 8 16 4 44 -7 41 -5 45 16 48 20 2 25 10 29 43 5 36 10 43 56 68
35 18 57 38 68 62 l17 34 47 -18 c90 -36 386 -162 390 -166 2 -2 10 -31 17
-65 9 -43 9 -58 1 -52 -45 35 -126 92 -130 92 -3 0 5 -28 18 -62 22 -61 25
-63 57 -62 19 0 41 4 51 8 13 6 18 -2 27 -45 6 -29 14 -86 18 -128 l6 -75
-149 -142 c-120 -115 -146 -144 -131 -149 46 -18 151 71 241 202 l49 72 33
-29 c34 -30 89 -46 124 -37 16 4 23 -7 46 -77 38 -114 95 -244 134 -303 31
-47 67 -80 77 -70 2 3 -48 108 -111 235 l-115 230 14 53 c8 29 24 77 36 106
l22 54 44 -43 44 -43 35 40 c18 22 34 43 34 48 0 4 -34 7 -75 7 l-75 0 15 37
c9 20 17 38 18 40 2 1 158 -63 347 -143 378 -159 390 -163 391 -143 0 8 3 28
6 44 13 70 30 59 -289 188 l-297 119 -12 59 c-6 32 -15 59 -20 59 -5 0 -24
-14 -43 -31 l-35 -30 5 38 c3 21 7 47 9 57 4 21 -11 158 -21 190 -5 14 8 7 43
-22 27 -23 52 -42 56 -42 11 0 8 101 -4 144 l-11 39 -44 -44 c-24 -23 -45 -41
-47 -38 -2 2 -21 54 -42 116 -45 134 -87 219 -105 215 -7 -2 -17 3 -21 10 -10
16 -71 -48 -136 -144 -26 -37 -50 -68 -54 -68 -4 0 -20 29 -35 65 -16 36 -31
65 -35 65 -12 0 -49 -98 -49 -131 l0 -32 56 7 c51 6 56 5 49 -11 -28 -63 -44
-124 -45 -163 -2 -77 -12 -86 -39 -35 -13 25 -27 45 -31 45 -3 0 -13 -13 -21
-29 l-14 -29 -130 52 c-71 29 -138 55 -147 58 -15 6 -15 12 -2 62 8 31 16 89
17 130 2 73 1 76 -32 110 -19 20 -52 48 -73 63 -47 32 -57 26 -78 -55 -13 -50
-18 -57 -40 -57 -18 0 -26 6 -28 23 -2 13 -14 27 -28 32 -13 5 -24 14 -24 20
0 14 -27 12 -33 -2 -4 -9 -14 -4 -31 15 -22 24 -26 37 -26 93 0 35 -6 79 -14
98 -15 37 -82 96 -108 96 -22 0 -47 -38 -58 -86 -9 -41 3 -185 24 -276 l13
-57 -31 13 c-17 7 -97 39 -178 71 -124 50 -147 63 -142 77 3 10 1 18 -5 18 -6
0 -11 -4 -11 -10 0 -14 -30 -12 -58 4 -15 8 -32 36 -47 77 -39 108 -97 233
-118 257 -18 19 -30 22 -103 22 -81 0 -82 0 -113 -35 -17 -20 -31 -45 -31 -56
0 -15 -5 -19 -15 -16 -21 9 -27 -7 -15 -39 6 -15 8 -29 5 -32 -13 -13 -33 27
-44 85 -6 34 -19 75 -27 92 -16 33 -31 43 -19 14 4 -10 17 -54 30 -99 l22 -81
-211 84 c-126 50 -217 93 -227 105 -14 18 -15 26 -3 66 19 62 17 130 -5 240
-20 95 -57 174 -90 192 -16 8 -24 4 -46 -21 -51 -61 -60 -88 -59 -184 0 -49 3
-119 7 -155 l6 -65 -14 68 c-10 47 -29 92 -61 143 -26 41 -48 73 -51 71 -2 -3
19 -65 46 -138 28 -73 48 -135 46 -137 -2 -2 -20 27 -39 64 -32 63 -77 124
-90 124 -3 0 19 -40 49 -90 l54 -89 -51 20 c-27 11 -274 109 -548 219 -274
110 -503 200 -508 200 -5 0 -12 -9 -15 -21z m2094 -1001 c43 -57 50 -68 46
-68 -2 0 -23 23 -46 50 -23 28 -38 50 -33 50 4 0 19 -14 33 -32z m1776 -15
c-3 -10 -5 -4 -5 12 0 17 2 24 5 18 2 -7 2 -21 0 -30z"/>
<path d="M5394 10758 c4 -18 13 -39 21 -48 13 -12 13 -8 -1 33 -18 54 -30 62
-20 15z"/>
<path d="M6266 10432 c-4 -7 -6 -15 -3 -18 2 -3 -6 -48 -18 -100 -26 -111 -17
-113 15 -4 21 73 25 151 6 122z"/>
<path d="M5326 10291 c-6 -8 193 -3 203 5 2 2 -41 4 -97 4 -55 0 -103 -4 -106
-9z"/>
<path d="M11159 9764 c-12 -23 -12 -27 6 -40 75 -51 103 -76 145 -126 26 -31
59 -80 74 -110 l26 -53 -28 -55 c-52 -101 -81 -204 -82 -290 0 -48 -4 -58 -34
-90 -19 -19 -47 -57 -62 -85 -26 -45 -28 -59 -28 -140 1 -116 35 -218 110
-330 94 -141 240 -262 348 -289 25 -6 25 -6 10 -49 -20 -56 -12 -84 26 -92 39
-9 80 16 148 90 28 30 58 55 66 55 18 0 120 50 124 62 2 4 12 8 23 8 11 0 19
7 19 17 0 14 3 13 16 -6 12 -17 13 -25 5 -30 -8 -5 -6 -12 6 -23 24 -21 64
-32 72 -20 3 5 15 12 26 16 17 5 23 -2 39 -46 28 -79 86 -202 92 -196 3 4 -6
29 -20 56 -53 104 -136 347 -136 397 0 5 27 -40 61 -100 69 -125 125 -206 194
-283 44 -48 98 -91 81 -63 -4 6 -2 11 5 11 6 0 -10 24 -38 53 -41 44 -104 129
-138 187 -5 8 13 -5 40 -29 49 -42 141 -101 159 -101 6 0 -17 16 -50 36 -107
64 -205 176 -258 294 l-24 55 149 -147 c82 -82 154 -148 160 -148 6 0 -31 41
-82 91 -52 49 -81 82 -66 73 27 -17 165 -80 197 -90 8 -3 5 1 -8 8 -12 8 -20
17 -16 21 4 4 -7 10 -23 13 -49 10 -297 203 -281 219 9 10 53 -17 157 -94 76
-56 161 -108 161 -98 0 2 -27 21 -59 41 -57 35 -241 173 -241 180 0 2 30 -7
68 -20 37 -13 85 -23 107 -23 40 1 40 1 -10 10 -27 4 -68 15 -90 24 l-40 15
35 -5 c25 -4 31 -2 20 5 -8 5 -26 10 -40 10 -14 0 -32 5 -40 10 -12 7 -8 10
15 10 17 0 37 4 44 9 10 6 0 8 -27 4 -23 -3 -42 -4 -42 -2 0 2 7 22 15 44 23
64 19 100 -16 140 -19 22 -40 35 -55 35 -29 0 -30 3 -2 49 19 32 20 34 3 21
-17 -14 -18 -13 -12 3 4 11 9 31 12 45 3 15 -4 0 -15 -32 -22 -65 -37 -89 -26
-41 7 29 7 29 -9 10 -15 -19 -16 -12 -13 97 2 64 0 111 -4 105 -3 -5 -8 1 -11
14 -2 13 -5 -43 -6 -125 0 -91 -5 -146 -10 -140 -9 9 -30 208 -32 311 l-2 58
-8 -70 c-5 -38 -12 -90 -17 -115 -8 -44 -8 -43 -25 62 -9 59 -17 119 -17 135
0 15 -5 35 -10 43 -14 21 -4 -72 26 -240 14 -74 27 -144 29 -155 3 -11 2 -14
-1 -7 -3 6 -11 12 -18 12 -15 0 -51 138 -81 312 -13 73 -23 122 -24 108 -1
-37 27 -204 50 -294 11 -43 18 -80 16 -82 -10 -11 -103 216 -146 356 l-11 35
6 -40 c9 -63 48 -173 108 -299 30 -64 51 -118 47 -121 -5 -2 -11 -1 -16 3 -4
4 -16 7 -27 7 -24 0 -111 143 -174 287 -21 49 -41 83 -43 77 -2 -7 34 -87 81
-179 75 -150 82 -166 61 -162 -13 2 -46 34 -78 73 -108 134 -216 198 -347 208
-5 1 -8 25 -8 54 0 44 23 128 57 207 3 8 7 22 9 30 2 8 8 16 13 18 17 6 13 22
-18 88 -44 93 -136 184 -254 252 -48 28 -51 28 -68 -4z m296 -314 c3 -5 -1
-10 -9 -10 -9 0 -16 5 -16 10 0 6 4 10 9 10 6 0 13 -4 16 -10z m789 -1153 c21
-37 42 -65 46 -62 5 3 12 0 16 -6 5 -8 3 -9 -6 -4 -10 6 -12 4 -6 -10 12 -31
94 -151 142 -207 40 -45 37 -44 -17 12 -36 36 -85 97 -111 136 -58 87 -138
234 -138 254 0 16 15 -7 74 -113z m-79 -35 c-1 -2 -17 -2 -33 0 l-30 3 21 48
22 49 12 -48 c7 -27 10 -50 8 -52z m24 -56 c1 -5 -5 -3 -13 4 -8 6 -12 19 -9
27 6 14 8 14 14 -3 4 -10 8 -23 8 -28z"/>
<path d="M6675 9668 c-41 -15 -44 -17 -15 -12 19 3 52 8 73 11 20 3 37 8 37
12 0 13 -47 8 -95 -11z"/>
<path d="M11380 9680 c0 -5 5 -10 10 -10 6 0 10 5 10 10 0 6 -4 10 -10 10 -5
0 -10 -4 -10 -10z"/>
<path d="M7020 9600 c8 -5 40 -9 70 -9 40 0 49 3 35 9 -29 12 -124 12 -105 0z"/>
<path d="M6460 9477 c0 -11 92 -167 102 -173 11 -7 0 41 -19 82 -13 30 -83
106 -83 91z"/>
<path d="M7110 9349 l-75 -39 45 6 c60 8 120 41 120 66 0 13 -11 9 -90 -33z"/>
<path d="M7545 9300 c17 -19 31 -37 33 -39 1 -2 4 -2 7 1 3 2 -12 20 -33 39
l-37 34 30 -35z"/>
<path d="M7391 9255 c-2 -22 29 -105 62 -171 54 -106 71 -119 32 -24 -47 111
-93 208 -94 195z"/>
<path d="M10715 8263 c10 -88 15 -111 28 -116 7 -3 211 -89 455 -191 244 -102
446 -186 449 -186 3 0 42 17 86 39 45 21 92 43 104 47 18 7 -88 53 -545 237
-312 125 -571 227 -575 227 -5 0 -6 -26 -2 -57z"/>
<path d="M13060 7339 c-42 -35 -120 -62 -182 -63 -26 -1 -41 -4 -33 -8 17 -10
537 -229 548 -231 5 -1 13 8 18 21 7 18 5 24 -9 29 -22 8 -255 232 -264 254
-11 29 -42 28 -78 -2z"/>
</g>
</svg>
